# xmcd
#
# Track frame offsets:
#	150
#	21395
#	33002
#	54407
#	87801
#	105444
#	121780
#	137241
#	154908
#	177498
#	197206
#	220288
#	245757
#	262953
#
# Disc length: 3829
#
# Revision: 1
# Processed by: cddbd v1.5.1PL0 Copyright (c) Steve Scherf et al.
# Submitted via: dBpowerAMP V4.0
# Normalized: r0:TRMNUM
#
DISCID=c00ef30e
DTITLE=Cleanhead Phil Speat - Crackers in my soup
DYEAR=1900
DGENRE=
TTITLE0=Crackers in my soup
TTITLE1=The Entertainer
TTITLE2=Old Style Blues in a Modern World
TTITLE3=Have no fear
TTITLE4=Lost my keys
TTITLE5=All night long
TTITLE6=Cornwall's Waltz
TTITLE7=Chicken and the Hawk
TTITLE8=The more you Give Me
TTITLE9=Since I met you baby
TTITLE10=Blues for Els
TTITLE11=Wait a minute baby
TTITLE12=Shake Rattle N Roll
TTITLE13=Honey hush
EXTD=
EXTT0=
EXTT1=
EXTT2=
EXTT3=
EXTT4=
EXTT5=
EXTT6=
EXTT7=
EXTT8=
EXTT9=
EXTT10=
EXTT11=
EXTT12=
EXTT13=
PLAYORDER=
